<svg xmlns="http://www.w3.org/2000/svg" xmlns:xlink="http://www.w3.org/1999/xlink" xmlns:lucid="lucid" width="1210" height="1034"><g transform="translate(-442 -191)" lucid:page-tab-id="0_0"><path d="M0 0h1760v1360H0z" fill="#fff"/><path d="M540.5 305c0-2.76 2.24-5 5-5H895c2.76 0 5 2.24 5 5v470c0 2.76-2.24 5-5 5H545.5c-2.76 0-5-2.24-5-5z" fill="#fff"/><path d="M540.5 260H900v40H540.5z" fill="#ccc"/><path d="M540.5 265c0-2.76 2.24-5 5-5H895c2.76 0 5 2.24 5 5v510c0 2.76-2.24 5-5 5H545.5c-2.76 0-5-2.24-5-5zM540.5 300H900M799 300v480" stroke="#333" fill="none"/><use xlink:href="#a" transform="matrix(1,0,0,1,550.5,260) translate(0 23.6)"/><use xlink:href="#b" transform="matrix(1,0,0,1,545.5,302.5) translate(0 17.1)"/><use xlink:href="#c" transform="matrix(1,0,0,1,804,302.5) translate(0 17.1)"/><use xlink:href="#d" transform="matrix(1,0,0,1,545.5,334.5) translate(0 17.1)"/><use xlink:href="#c" transform="matrix(1,0,0,1,804,334.5) translate(0 17.1)"/><use xlink:href="#e" transform="matrix(1,0,0,1,545.5,366.5) translate(0 17.1)"/><use xlink:href="#f" transform="matrix(1,0,0,1,804,366.5) translate(0 17.1)"/><use xlink:href="#g" transform="matrix(1,0,0,1,545.5,398.5) translate(0 17.1)"/><use xlink:href="#g" transform="matrix(1,0,0,1,804,398.5) translate(0 17.1)"/><use xlink:href="#h" transform="matrix(1,0,0,1,545.5,430.5) translate(0 17.1)"/><use xlink:href="#i" transform="matrix(1,0,0,1,804,430.5) translate(0 17.1)"/><use xlink:href="#j" transform="matrix(1,0,0,1,545.5,462.5) translate(0 17.1)"/><use xlink:href="#k" transform="matrix(1,0,0,1,804,462.5) translate(0 17.1)"/><use xlink:href="#l" transform="matrix(1,0,0,1,545.5,494.5) translate(0 17.1)"/><use xlink:href="#m" transform="matrix(1,0,0,1,804,494.5) translate(0 17.1)"/><use xlink:href="#n" transform="matrix(1,0,0,1,545.5,526.5) translate(0 17.1)"/><use xlink:href="#o" transform="matrix(1,0,0,1,804,526.5) translate(0 17.1)"/><use xlink:href="#p" transform="matrix(1,0,0,1,545.5,558.5) translate(0 17.1)"/><use xlink:href="#k" transform="matrix(1,0,0,1,804,558.5) translate(0 17.1)"/><use xlink:href="#q" transform="matrix(1,0,0,1,545.5,590.5) translate(0 17.1)"/><use xlink:href="#k" transform="matrix(1,0,0,1,804,590.5) translate(0 17.1)"/><use xlink:href="#r" transform="matrix(1,0,0,1,545.5,622.5) translate(0 17.1)"/><use xlink:href="#m" transform="matrix(1,0,0,1,804,622.5) translate(0 17.1)"/><use xlink:href="#s" transform="matrix(1,0,0,1,545.5,654.5) translate(0 17.1)"/><use xlink:href="#m" transform="matrix(1,0,0,1,804,654.5) translate(0 17.1)"/><use xlink:href="#t" transform="matrix(1,0,0,1,545.5,686.5) translate(0 17.1)"/><use xlink:href="#m" transform="matrix(1,0,0,1,804,686.5) translate(0 17.1)"/><use xlink:href="#u" transform="matrix(1,0,0,1,545.5,718.5) translate(0 17.1)"/><use xlink:href="#m" transform="matrix(1,0,0,1,804,718.5) translate(0 17.1)"/><use xlink:href="#v" transform="matrix(1,0,0,1,545.5,750.5) translate(0 17.1)"/><use xlink:href="#w" transform="matrix(1,0,0,1,804,750.5) translate(0 17.1)"/><path d="M980 445c0-2.76 2.24-5 5-5h270c2.76 0 5 2.24 5 5v214c0 2.76-2.24 5-5 5H985c-2.76 0-5-2.24-5-5z" fill="#fff"/><path d="M980 400h280v40H980z" fill="#ccc"/><path d="M980 405c0-2.76 2.24-5 5-5h270c2.76 0 5 2.24 5 5v254c0 2.76-2.24 5-5 5H985c-2.76 0-5-2.24-5-5zM980 440h280M1120 440v224" stroke="#333" fill="none"/><use xlink:href="#x" transform="matrix(1,0,0,1,990,400) translate(0 23.6)"/><use xlink:href="#b" transform="matrix(1,0,0,1,985,442.5) translate(0 17.1)"/><use xlink:href="#c" transform="matrix(1,0,0,1,1125,442.5) translate(0 17.1)"/><use xlink:href="#y" transform="matrix(1,0,0,1,985,474.5) translate(0 17.1)"/><use xlink:href="#c" transform="matrix(1,0,0,1,1125,474.5) translate(0 17.1)"/><use xlink:href="#z" transform="matrix(1,0,0,1,985,506.5) translate(0 17.1)"/><use xlink:href="#o" transform="matrix(1,0,0,1,1125,506.5) translate(0 17.1)"/><use xlink:href="#A" transform="matrix(1,0,0,1,985,538.5) translate(0 17.1)"/><use xlink:href="#k" transform="matrix(1,0,0,1,1125,538.5) translate(0 17.1)"/><use xlink:href="#B" transform="matrix(1,0,0,1,985,570.5) translate(0 17.1)"/><use xlink:href="#o" transform="matrix(1,0,0,1,1125,570.5) translate(0 17.1)"/><use xlink:href="#C" transform="matrix(1,0,0,1,985,602.5) translate(0 17.1)"/><use xlink:href="#D" transform="matrix(1,0,0,1,1125,602.5) translate(0 17.1)"/><use xlink:href="#E" transform="matrix(1,0,0,1,985,634.5) translate(0 17.1)"/><use xlink:href="#k" transform="matrix(1,0,0,1,1125,634.5) translate(0 17.1)"/><path d="M600 885c0-2.76 2.24-5 5-5h270c2.76 0 5 2.24 5 5v278c0 2.76-2.24 5-5 5H605c-2.76 0-5-2.24-5-5z" fill="#fff"/><path d="M600 840h280v40H600z" fill="#ccc"/><path d="M600 845c0-2.76 2.24-5 5-5h270c2.76 0 5 2.24 5 5v318c0 2.76-2.24 5-5 5H605c-2.76 0-5-2.24-5-5zM600 880h280M738.28 880v288" stroke="#333" fill="none"/><use xlink:href="#F" transform="matrix(1,0,0,1,610,840) translate(0 23.6)"/><use xlink:href="#b" transform="matrix(1,0,0,1,605,882.5) translate(0 17.1)"/><use xlink:href="#c" transform="matrix(1,0,0,1,743.2798345758615,882.5) translate(0 17.1)"/><use xlink:href="#G" transform="matrix(1,0,0,1,605,914.5) translate(0 17.1)"/><use xlink:href="#f" transform="matrix(1,0,0,1,743.2798345758615,914.5) translate(0 17.1)"/><use xlink:href="#H" transform="matrix(1,0,0,1,605,946.5) translate(0 17.1)"/><use xlink:href="#f" transform="matrix(1,0,0,1,743.2798345758615,946.5) translate(0 17.1)"/><use xlink:href="#I" transform="matrix(1,0,0,1,605,978.5) translate(0 17.1)"/><use xlink:href="#f" transform="matrix(1,0,0,1,743.2798345758615,978.5) translate(0 17.1)"/><use xlink:href="#J" transform="matrix(1,0,0,1,605,1010.5) translate(0 17.1)"/><use xlink:href="#k" transform="matrix(1,0,0,1,743.2798345758615,1010.5) translate(0 17.1)"/><use xlink:href="#K" transform="matrix(1,0,0,1,605,1042.5) translate(0 17.1)"/><use xlink:href="#k" transform="matrix(1,0,0,1,743.2798345758615,1042.5) translate(0 17.1)"/><use xlink:href="#L" transform="matrix(1,0,0,1,605,1074.5) translate(0 17.1)"/><use xlink:href="#M" transform="matrix(1,0,0,1,743.2798345758615,1074.5) translate(0 17.1)"/><use xlink:href="#N" transform="matrix(1,0,0,1,605,1106.5) translate(0 17.1)"/><use xlink:href="#M" transform="matrix(1,0,0,1,743.2798345758615,1106.5) translate(0 17.1)"/><use xlink:href="#O" transform="matrix(1,0,0,1,605,1138.5) translate(0 17.1)"/><use xlink:href="#M" transform="matrix(1,0,0,1,743.2798345758615,1138.5) translate(0 17.1)"/><path d="M579.5 895.6H512c-6.63 0-12-5.36-12-12V359.53c0-6.63 5.37-12 12-12h8.6" stroke="#333" fill="none"/><path d="M579.5 885.6v20M599.5 895.6h-20" stroke="#333" fill="#fff"/><path d="M539.78 357.52l-20-10 20-10" stroke="#333" fill="#fff" fill-opacity="0"/><path d="M539.78 347.52h-20" stroke="#333" fill="#fff"/><path d="M959.5 487.84h-26c-6.63 0-12-5.37-12-12V317.02c0-.88-.7-1.6-1.6-1.6" stroke="#333" fill="none"/><path d="M959.5 477.84v20M979.5 487.84h-20" stroke="#333" fill="#fff"/><path d="M900.72 305.43l20 10-20 10" stroke="#333" fill="#fff" fill-opacity="0"/><path d="M900.72 315.43h20" stroke="#333" fill="#fff"/><path d="M980 786.25c0-2.76 2.24-5 5-5h270c2.76 0 5 2.24 5 5v342c0 2.76-2.24 5-5 5H985c-2.76 0-5-2.24-5-5z" fill="#fff"/><path d="M980 741.25h280v40H980z" fill="#ccc"/><path d="M980 746.25c0-2.76 2.24-5 5-5h270c2.76 0 5 2.24 5 5v382c0 2.76-2.24 5-5 5H985c-2.76 0-5-2.24-5-5zM980 781.25h280M1120 781.25v352" stroke="#333" fill="none"/><use xlink:href="#P" transform="matrix(1,0,0,1,990,741.2471092321216) translate(0 23.6)"/><use xlink:href="#b" transform="matrix(1,0,0,1,985,783.7471092321216) translate(0 17.1)"/><use xlink:href="#c" transform="matrix(1,0,0,1,1125,783.7471092321216) translate(0 17.1)"/><use xlink:href="#d" transform="matrix(1,0,0,1,985,815.7471092321216) translate(0 17.1)"/><use xlink:href="#c" transform="matrix(1,0,0,1,1125,815.7471092321216) translate(0 17.1)"/><use xlink:href="#Q" transform="matrix(1,0,0,1,985,847.7471092321216) translate(0 17.1)"/><use xlink:href="#k" transform="matrix(1,0,0,1,1125,847.7471092321216) translate(0 17.1)"/><use xlink:href="#R" transform="matrix(1,0,0,1,985,879.7471092321216) translate(0 17.1)"/><use xlink:href="#D" transform="matrix(1,0,0,1,1125,879.7471092321216) translate(0 17.1)"/><use xlink:href="#S" transform="matrix(1,0,0,1,985,911.7471092321216) translate(0 17.1)"/><use xlink:href="#D" transform="matrix(1,0,0,1,1125,911.7471092321216) translate(0 17.1)"/><use xlink:href="#T" transform="matrix(1,0,0,1,985,943.7471092321216) translate(0 17.1)"/><use xlink:href="#D" transform="matrix(1,0,0,1,1125,943.7471092321216) translate(0 17.1)"/><use xlink:href="#U" transform="matrix(1,0,0,1,985,975.7471092321216) translate(0 17.1)"/><use xlink:href="#M" transform="matrix(1,0,0,1,1125,975.7471092321216) translate(0 17.1)"/><use xlink:href="#V" transform="matrix(1,0,0,1,985,1007.7471092321216) translate(0 17.1)"/><use xlink:href="#M" transform="matrix(1,0,0,1,1125,1007.7471092321216) translate(0 17.1)"/><use xlink:href="#W" transform="matrix(1,0,0,1,985,1039.7471092321216) translate(0 17.1)"/><use xlink:href="#w" transform="matrix(1,0,0,1,1125,1039.7471092321216) translate(0 17.1)"/><use xlink:href="#X" transform="matrix(1,0,0,1,985,1071.7471092321216) translate(0 17.1)"/><use xlink:href="#w" transform="matrix(1,0,0,1,1125,1071.7471092321216) translate(0 17.1)"/><use xlink:href="#v" transform="matrix(1,0,0,1,985,1103.7471092321216) translate(0 17.1)"/><use xlink:href="#w" transform="matrix(1,0,0,1,1125,1103.7471092321216) translate(0 17.1)"/><path d="M579.5 895.6h-8c-6.63 0-12-5.36-12-12V812c0-6.63 5.37-12 12-12h356c6.63 0 12 5.37 12 12v4.86c0 6.63 5.37 12 12 12h8.6" stroke="#333" fill="none"/><path d="M579.5 885.6v20M599.5 895.6h-20" stroke="#333" fill="#fff"/><path d="M979.28 838.86l-20-10 20-10" stroke="#333" fill="#fff" fill-opacity="0"/><path d="M979.28 828.86h-20" stroke="#333" fill="#fff"/><path d="M959.5 796.75h-8c-6.63 0-12-5.38-12-12v-252.8c0-6.62 5.37-12 12-12h8.6" stroke="#333" fill="none"/><path d="M959.5 786.75v20M979.5 796.75h-20" stroke="#333" fill="#fff"/><path d="M979.28 529.96l-20-10 20-10" stroke="#333" fill="#fff" fill-opacity="0"/><path d="M979.28 519.96h-20" stroke="#333" fill="#fff"/><path d="M1300 786.25c0-2.76 2.24-5 5-5h270c2.76 0 5 2.24 5 5v214c0 2.76-2.24 5-5 5h-270c-2.76 0-5-2.24-5-5z" fill="#fff"/><path d="M1300 741.25h280v40h-280z" fill="#ccc"/><path d="M1300 746.25c0-2.76 2.24-5 5-5h270c2.76 0 5 2.24 5 5v254c0 2.76-2.24 5-5 5h-270c-2.76 0-5-2.24-5-5zM1300 781.25h280M1440 781.25v224" stroke="#333" fill="none"/><use xlink:href="#Y" transform="matrix(1,0,0,1,1310,741.2471092321216) translate(0 23.6)"/><use xlink:href="#b" transform="matrix(1,0,0,1,1305,783.7471092321216) translate(0 17.1)"/><use xlink:href="#c" transform="matrix(1,0,0,1,1445,783.7471092321216) translate(0 17.1)"/><use xlink:href="#Z" transform="matrix(1,0,0,1,1305,815.7471092321216) translate(0 17.1)"/><use xlink:href="#c" transform="matrix(1,0,0,1,1445,815.7471092321216) translate(0 17.1)"/><use xlink:href="#aa" transform="matrix(1,0,0,1,1305,847.7471092321216) translate(0 17.1)"/><use xlink:href="#o" transform="matrix(1,0,0,1,1445,847.7471092321216) translate(0 17.1)"/><use xlink:href="#ab" transform="matrix(1,0,0,1,1305,879.7471092321216) translate(0 17.1)"/><use xlink:href="#k" transform="matrix(1,0,0,1,1445,879.7471092321216) translate(0 17.1)"/><use xlink:href="#ac" transform="matrix(1,0,0,1,1305,911.7471092321216) translate(0 17.1)"/><use xlink:href="#o" transform="matrix(1,0,0,1,1445,911.7471092321216) translate(0 17.1)"/><use xlink:href="#ad" transform="matrix(1,0,0,1,1305,943.7471092321216) translate(0 17.1)"/><use xlink:href="#D" transform="matrix(1,0,0,1,1445,943.7471092321216) translate(0 17.1)"/><use xlink:href="#S" transform="matrix(1,0,0,1,1305,975.7471092321216) translate(0 17.1)"/><use xlink:href="#k" transform="matrix(1,0,0,1,1445,975.7471092321216) translate(0 17.1)"/><path d="M959.5 796.75h-8c-6.63 0-12-5.38-12-12v-71.5c0-6.63 5.37-12 12-12h316.25c6.63 0 12 5.37 12 12v115.5c0 .2.15.34.34.34" stroke="#333" fill="none"/><path d="M959.5 786.75v20M979.5 796.75h-20" stroke="#333" fill="#fff"/><path d="M1299.28 839.1l-20-10 20-10" stroke="#333" fill="#fff" fill-opacity="0"/><path d="M1299.28 829.1h-20" stroke="#333" fill="#fff"/><defs><path fill="#333" d="M238-179c0 84-86 86-175 82L45 0H11l48-248c82 0 179-12 179 69zm-34 1c0-53-64-42-116-43l-19 98c63 0 135 9 135-55" id="ae"/><path fill="#333" d="M6 0l50-261h32L37 0H6" id="af"/><path fill="#333" d="M165-48c-4 18 1 34 23 27l-3 20c-29 8-62 0-52-35h-2C116-14 99 4 63 4 30 4 8-16 8-49c0-68 71-67 138-67 10-26 0-56-31-54-26 1-42 9-47 31l-32-5c8-67 160-71 144 15-5 28-9 54-15 81zM42-50c3 52 80 24 89-6 7-12 7-24 11-38-47 1-103-4-100 44" id="ag"/><path fill="#333" d="M67-158c22-48 132-52 116 29L158 0h-32l25-140c3-38-53-32-70-12C52-117 51-52 38 0H6l36-190h30" id="ah"/><path fill="#333" d="M51-54c-9 22 5 41 31 30L79-1C43 14 10-4 19-52l22-115H19l5-23h22l19-43h21l-9 43h35l-4 23H73" id="ai"/><g id="a"><use transform="matrix(0.05,0,0,0.05,0,0)" xlink:href="#ae"/><use transform="matrix(0.05,0,0,0.05,12,0)" xlink:href="#af"/><use transform="matrix(0.05,0,0,0.05,15.949999999999998,0)" xlink:href="#ag"/><use transform="matrix(0.05,0,0,0.05,25.950000000000003,0)" xlink:href="#ah"/><use transform="matrix(0.05,0,0,0.05,35.95,0)" xlink:href="#ai"/></g><path fill="#333" d="M24-231v-30h32v30H24zM24 0v-190h32V0H24" id="aj"/><path fill="#333" d="M85-194c31 0 48 13 60 33l-1-100h32l1 261h-30c-2-10 0-23-3-31C134-8 116 4 85 4 32 4 16-35 15-94c0-66 23-100 70-100zm9 24c-40 0-46 34-46 75 0 40 6 74 45 74 42 0 51-32 51-76 0-42-9-74-50-73" id="ak"/><g id="b"><use transform="matrix(0.05,0,0,0.05,0,0)" xlink:href="#aj"/><use transform="matrix(0.05,0,0,0.05,3.95,0)" xlink:href="#ak"/></g><path fill="#333" d="M117-194c89-4 53 116 60 194h-32v-121c0-31-8-49-39-48C34-167 62-67 57 0H25l-1-190h30c1 10-1 24 2 32 11-22 29-35 61-36" id="al"/><path fill="#333" d="M59-47c-2 24 18 29 38 22v24C64 9 27 4 27-40v-127H5v-23h24l9-43h21v43h35v23H59v120" id="am"/><g id="c"><use transform="matrix(0.05,0,0,0.05,0,0)" xlink:href="#aj"/><use transform="matrix(0.05,0,0,0.05,3.95,0)" xlink:href="#al"/><use transform="matrix(0.05,0,0,0.05,13.949999999999998,0)" xlink:href="#am"/></g><path fill="#333" d="M84 4C-5 8 30-112 23-190h32v120c0 31 7 50 39 49 72-2 45-101 50-169h31l1 190h-30c-1-10 1-25-2-33-11 22-28 36-60 37" id="an"/><path fill="#333" d="M135-143c-3-34-86-38-87 0 15 53 115 12 119 90S17 21 10-45l28-5c4 36 97 45 98 0-10-56-113-15-118-90-4-57 82-63 122-42 12 7 21 19 24 35" id="ao"/><path fill="#333" d="M100-194c63 0 86 42 84 106H49c0 40 14 67 53 68 26 1 43-12 49-29l28 8c-11 28-37 45-77 45C44 4 14-33 15-96c1-61 26-98 85-98zm52 81c6-60-76-77-97-28-3 7-6 17-6 28h103" id="ap"/><path fill="#333" d="M114-163C36-179 61-72 57 0H25l-1-190h30c1 12-1 29 2 39 6-27 23-49 58-41v29" id="aq"/><path fill="#333" d="M33 0v-248h34V0H33" id="ar"/><g id="d"><use transform="matrix(0.05,0,0,0.05,0,0)" xlink:href="#an"/><use transform="matrix(0.05,0,0,0.05,10,0)" xlink:href="#ao"/><use transform="matrix(0.05,0,0,0.05,19,0)" xlink:href="#ap"/><use transform="matrix(0.05,0,0,0.05,29,0)" xlink:href="#aq"/><use transform="matrix(0.05,0,0,0.05,34.95,0)" xlink:href="#ar"/><use transform="matrix(0.05,0,0,0.05,39.95,0)" xlink:href="#ak"/></g><path fill="#333" d="M141-36C126-15 110 5 73 4 37 3 15-17 15-53c-1-64 63-63 125-63 3-35-9-54-41-54-24 1-41 7-42 31l-33-3c5-37 33-52 76-52 45 0 72 20 72 64v82c-1 20 7 32 28 27v20c-31 9-61-2-59-35zM48-53c0 20 12 33 32 33 41-3 63-29 60-74-43 2-92-5-92 41" id="as"/><path fill="#333" d="M210-169c-67 3-38 105-44 169h-31v-121c0-29-5-50-35-48C34-165 62-65 56 0H25l-1-190h30c1 10-1 24 2 32 10-44 99-50 107 0 11-21 27-35 58-36 85-2 47 119 55 194h-31v-121c0-29-5-49-35-48" id="at"/><g id="e"><use transform="matrix(0.05,0,0,0.05,0,0)" xlink:href="#al"/><use transform="matrix(0.05,0,0,0.05,10,0)" xlink:href="#as"/><use transform="matrix(0.05,0,0,0.05,20,0)" xlink:href="#at"/><use transform="matrix(0.05,0,0,0.05,34.95,0)" xlink:href="#ap"/></g><path fill="#333" d="M96-169c-40 0-48 33-48 73s9 75 48 75c24 0 41-14 43-38l32 2c-6 37-31 61-74 61-59 0-76-41-82-99-10-93 101-131 147-64 4 7 5 14 7 22l-32 3c-4-21-16-35-41-35" id="au"/><path fill="#333" d="M106-169C34-169 62-67 57 0H25v-261h32l-1 103c12-21 28-36 61-36 89 0 53 116 60 194h-32v-121c2-32-8-49-39-48" id="av"/><g id="f"><use transform="matrix(0.05,0,0,0.05,0,0)" xlink:href="#au"/><use transform="matrix(0.05,0,0,0.05,9,0)" xlink:href="#av"/><use transform="matrix(0.05,0,0,0.05,19,0)" xlink:href="#as"/><use transform="matrix(0.05,0,0,0.05,29,0)" xlink:href="#aq"/></g><path fill="#333" d="M177-190C167-65 218 103 67 71c-23-6-38-20-44-43l32-5c15 47 100 32 89-28v-30C133-14 115 1 83 1 29 1 15-40 15-95c0-56 16-97 71-98 29-1 48 16 59 35 1-10 0-23 2-32h30zM94-22c36 0 50-32 50-73 0-42-14-75-50-75-39 0-46 34-46 75s6 73 46 73" id="aw"/><g id="g"><use transform="matrix(0.05,0,0,0.05,0,0)" xlink:href="#aj"/><use transform="matrix(0.05,0,0,0.05,3.95,0)" xlink:href="#at"/><use transform="matrix(0.05,0,0,0.05,18.900000000000002,0)" xlink:href="#as"/><use transform="matrix(0.05,0,0,0.05,28.900000000000002,0)" xlink:href="#aw"/><use transform="matrix(0.05,0,0,0.05,38.900000000000006,0)" xlink:href="#ap"/></g><path fill="#333" d="M115-194c55 1 70 41 70 98S169 2 115 4C84 4 66-9 55-30l1 105H24l-1-265h31l2 30c10-21 28-34 59-34zm-8 174c40 0 45-34 45-75s-6-73-45-74c-42 0-51 32-51 76 0 43 10 73 51 73" id="ax"/><g id="h"><use transform="matrix(0.05,0,0,0.05,0,0)" xlink:href="#ax"/><use transform="matrix(0.05,0,0,0.05,10,0)" xlink:href="#aq"/><use transform="matrix(0.05,0,0,0.05,15.949999999999998,0)" xlink:href="#aj"/><use transform="matrix(0.05,0,0,0.05,19.9,0)" xlink:href="#au"/><use transform="matrix(0.05,0,0,0.05,28.899999999999995,0)" xlink:href="#ap"/></g><path fill="#333" d="M24 0v-261h32V0H24" id="ay"/><g id="i"><use transform="matrix(0.05,0,0,0.05,0,0)" xlink:href="#ak"/><use transform="matrix(0.05,0,0,0.05,10,0)" xlink:href="#ap"/><use transform="matrix(0.05,0,0,0.05,20,0)" xlink:href="#au"/><use transform="matrix(0.05,0,0,0.05,29,0)" xlink:href="#aj"/><use transform="matrix(0.05,0,0,0.05,32.95,0)" xlink:href="#at"/><use transform="matrix(0.05,0,0,0.05,47.900000000000006,0)" xlink:href="#as"/><use transform="matrix(0.05,0,0,0.05,57.900000000000006,0)" xlink:href="#ay"/></g><path d="M115-194c55 1 70 41 70 98S169 2 115 4C84 4 66-9 55-30l1 105H24l-1-265h31l2 30c10-21 28-34 59-34zm-8 174c40 0 45-34 45-75s-6-73-45-74c-42 0-51 32-51 76 0 43 10 73 51 73" id="az"/><path d="M100-194c62-1 85 37 85 99 1 63-27 99-86 99S16-35 15-95c0-66 28-99 85-99zM99-20c44 1 53-31 53-75 0-43-8-75-51-75s-53 32-53 75 10 74 51 75" id="aA"/><path d="M59-47c-2 24 18 29 38 22v24C64 9 27 4 27-40v-127H5v-23h24l9-43h21v43h35v23H59v120" id="aB"/><path d="M185-189c-5-48-123-54-124 2 14 75 158 14 163 119 3 78-121 87-175 55-17-10-28-26-33-46l33-7c5 56 141 63 141-1 0-78-155-14-162-118-5-82 145-84 179-34 5 7 8 16 11 25" id="aC"/><path d="M24-231v-30h32v30H24zM24 0v-190h32V0H24" id="aD"/><path d="M9 0v-24l116-142H16v-24h144v24L44-24h123V0H9" id="aE"/><path d="M100-194c63 0 86 42 84 106H49c0 40 14 67 53 68 26 1 43-12 49-29l28 8c-11 28-37 45-77 45C44 4 14-33 15-96c1-61 26-98 85-98zm52 81c6-60-76-77-97-28-3 7-6 17-6 28h103" id="aF"/><g id="j"><use transform="matrix(0.05,0,0,0.05,0,0)" xlink:href="#az"/><use transform="matrix(0.05,0,0,0.05,10,0)" xlink:href="#aA"/><use transform="matrix(0.05,0,0,0.05,20,0)" xlink:href="#aB"/><use transform="matrix(0.05,0,0,0.05,25,0)" xlink:href="#aC"/><use transform="matrix(0.05,0,0,0.05,37,0)" xlink:href="#aD"/><use transform="matrix(0.05,0,0,0.05,40.95,0)" xlink:href="#aE"/><use transform="matrix(0.05,0,0,0.05,49.95,0)" xlink:href="#aF"/></g><path d="M96-169c-40 0-48 33-48 73s9 75 48 75c24 0 41-14 43-38l32 2c-6 37-31 61-74 61-59 0-76-41-82-99-10-93 101-131 147-64 4 7 5 14 7 22l-32 3c-4-21-16-35-41-35" id="aG"/><path d="M106-169C34-169 62-67 57 0H25v-261h32l-1 103c12-21 28-36 61-36 89 0 53 116 60 194h-32v-121c2-32-8-49-39-48" id="aH"/><path d="M141-36C126-15 110 5 73 4 37 3 15-17 15-53c-1-64 63-63 125-63 3-35-9-54-41-54-24 1-41 7-42 31l-33-3c5-37 33-52 76-52 45 0 72 20 72 64v82c-1 20 7 32 28 27v20c-31 9-61-2-59-35zM48-53c0 20 12 33 32 33 41-3 63-29 60-74-43 2-92-5-92 41" id="aI"/><path d="M114-163C36-179 61-72 57 0H25l-1-190h30c1 12-1 29 2 39 6-27 23-49 58-41v29" id="aJ"/><g id="k"><use transform="matrix(0.05,0,0,0.05,0,0)" xlink:href="#aG"/><use transform="matrix(0.05,0,0,0.05,9,0)" xlink:href="#aH"/><use transform="matrix(0.05,0,0,0.05,19,0)" xlink:href="#aI"/><use transform="matrix(0.05,0,0,0.05,29,0)" xlink:href="#aJ"/></g><path d="M85-194c31 0 48 13 60 33l-1-100h32l1 261h-30c-2-10 0-23-3-31C134-8 116 4 85 4 32 4 16-35 15-94c0-66 23-100 70-100zm9 24c-40 0-46 34-46 75 0 40 6 74 45 74 42 0 51-32 51-76 0-42-9-74-50-73" id="aK"/><path d="M135-143c-3-34-86-38-87 0 15 53 115 12 119 90S17 21 10-45l28-5c4 36 97 45 98 0-10-56-113-15-118-90-4-57 82-63 122-42 12 7 21 19 24 35" id="aL"/><path d="M117-194c89-4 53 116 60 194h-32v-121c0-31-8-49-39-48C34-167 62-67 57 0H25l-1-190h30c1 10-1 24 2 32 11-22 29-35 61-36" id="aM"/><g id="l"><use transform="matrix(0.05,0,0,0.05,0,0)" xlink:href="#aK"/><use transform="matrix(0.05,0,0,0.05,10,0)" xlink:href="#aF"/><use transform="matrix(0.05,0,0,0.05,20,0)" xlink:href="#aL"/><use transform="matrix(0.05,0,0,0.05,29,0)" xlink:href="#aG"/><use transform="matrix(0.05,0,0,0.05,38,0)" xlink:href="#aJ"/><use transform="matrix(0.05,0,0,0.05,43.95,0)" xlink:href="#aD"/><use transform="matrix(0.05,0,0,0.05,47.900000000000006,0)" xlink:href="#az"/><use transform="matrix(0.05,0,0,0.05,57.900000000000006,0)" xlink:href="#aB"/><use transform="matrix(0.05,0,0,0.05,62.900000000000006,0)" xlink:href="#aD"/><use transform="matrix(0.05,0,0,0.05,66.85000000000001,0)" xlink:href="#aA"/><use transform="matrix(0.05,0,0,0.05,76.85000000000001,0)" xlink:href="#aM"/></g><path d="M141 0L90-78 38 0H4l68-98-65-92h35l48 74 47-74h35l-64 92 68 98h-35" id="aN"/><g id="m"><use transform="matrix(0.05,0,0,0.05,0,0)" xlink:href="#aB"/><use transform="matrix(0.05,0,0,0.05,5,0)" xlink:href="#aF"/><use transform="matrix(0.05,0,0,0.05,15,0)" xlink:href="#aN"/><use transform="matrix(0.05,0,0,0.05,24,0)" xlink:href="#aB"/></g><path d="M84 4C-5 8 30-112 23-190h32v120c0 31 7 50 39 49 72-2 45-101 50-169h31l1 190h-30c-1-10 1-25-2-33-11 22-28 36-60 37" id="aO"/><path d="M33 0v-248h34V0H33" id="aP"/><path d="M143 0L79-87 56-68V0H24v-261h32v163l83-92h37l-77 82L181 0h-38" id="aQ"/><g id="n"><use transform="matrix(0.05,0,0,0.05,0,0)" xlink:href="#aG"/><use transform="matrix(0.05,0,0,0.05,9,0)" xlink:href="#aA"/><use transform="matrix(0.05,0,0,0.05,19,0)" xlink:href="#aO"/><use transform="matrix(0.05,0,0,0.05,29,0)" xlink:href="#aM"/><use transform="matrix(0.05,0,0,0.05,39,0)" xlink:href="#aB"/><use transform="matrix(0.05,0,0,0.05,44,0)" xlink:href="#aP"/><use transform="matrix(0.05,0,0,0.05,49,0)" xlink:href="#aM"/><use transform="matrix(0.05,0,0,0.05,59,0)" xlink:href="#aC"/><use transform="matrix(0.05,0,0,0.05,71,0)" xlink:href="#aB"/><use transform="matrix(0.05,0,0,0.05,76,0)" xlink:href="#aA"/><use transform="matrix(0.05,0,0,0.05,86,0)" xlink:href="#aG"/><use transform="matrix(0.05,0,0,0.05,95,0)" xlink:href="#aQ"/></g><g id="o"><use transform="matrix(0.05,0,0,0.05,0,0)" xlink:href="#aD"/><use transform="matrix(0.05,0,0,0.05,3.95,0)" xlink:href="#aM"/><use transform="matrix(0.05,0,0,0.05,13.949999999999998,0)" xlink:href="#aB"/></g><path d="M101-234c-31-9-42 10-38 44h38v23H63V0H32v-167H5v-23h27c-7-52 17-82 69-68v24" id="aR"/><path d="M24 0v-261h32V0H24" id="aS"/><path d="M160-131c35 5 61 23 61 61C221 17 115-2 30 0v-248c76 3 177-17 177 60 0 33-19 50-47 57zm-97-11c50-1 110 9 110-42 0-47-63-36-110-37v79zm0 115c55-2 124 14 124-45 0-56-70-42-124-44v89" id="aT"/><path d="M179-190L93 31C79 59 56 82 12 73V49c39 6 53-20 64-50L1-190h34L92-34l54-156h33" id="aU"/><path d="M30-248c87 1 191-15 191 75 0 78-77 80-158 76V0H30v-248zm33 125c57 0 124 11 124-50 0-59-68-47-124-48v98" id="aV"/><g id="p"><use transform="matrix(0.05,0,0,0.05,0,0)" xlink:href="#aR"/><use transform="matrix(0.05,0,0,0.05,5,0)" xlink:href="#aD"/><use transform="matrix(0.05,0,0,0.05,8.95,0)" xlink:href="#aS"/><use transform="matrix(0.05,0,0,0.05,12.899999999999999,0)" xlink:href="#aB"/><use transform="matrix(0.05,0,0,0.05,17.9,0)" xlink:href="#aF"/><use transform="matrix(0.05,0,0,0.05,27.899999999999995,0)" xlink:href="#aJ"/><use transform="matrix(0.05,0,0,0.05,33.85,0)" xlink:href="#aT"/><use transform="matrix(0.05,0,0,0.05,45.85,0)" xlink:href="#aU"/><use transform="matrix(0.05,0,0,0.05,54.85,0)" xlink:href="#aV"/><use transform="matrix(0.05,0,0,0.05,66.85,0)" xlink:href="#aS"/><use transform="matrix(0.05,0,0,0.05,70.8,0)" xlink:href="#aI"/><use transform="matrix(0.05,0,0,0.05,80.8,0)" xlink:href="#aM"/><use transform="matrix(0.05,0,0,0.05,90.8,0)" xlink:href="#aB"/><use transform="matrix(0.05,0,0,0.05,95.8,0)" xlink:href="#aC"/><use transform="matrix(0.05,0,0,0.05,107.80000000000001,0)" xlink:href="#aD"/><use transform="matrix(0.05,0,0,0.05,111.75,0)" xlink:href="#aE"/><use transform="matrix(0.05,0,0,0.05,120.75,0)" xlink:href="#aF"/></g><path d="M30 0v-248h33v221h125V0H30" id="aW"/><path d="M177-190C167-65 218 103 67 71c-23-6-38-20-44-43l32-5c15 47 100 32 89-28v-30C133-14 115 1 83 1 29 1 15-40 15-95c0-56 16-97 71-98 29-1 48 16 59 35 1-10 0-23 2-32h30zM94-22c36 0 50-32 50-73 0-42-14-75-50-75-39 0-46 34-46 75s6 73 46 73" id="aX"/><path d="M233-177c-1 41-23 64-60 70L243 0h-38l-65-103H63V0H30v-248c88 3 205-21 203 71zM63-129c60-2 137 13 137-47 0-61-80-42-137-45v92" id="aY"/><path d="M145-31C134-9 116 4 85 4 32 4 16-35 15-94c0-59 17-99 70-100 32-1 48 14 60 33 0-11-1-24 2-32h30l-1 268h-32zM93-21c41 0 51-33 51-76s-8-73-50-73c-40 0-46 35-46 75s5 74 45 74" id="aZ"/><path d="M210-169c-67 3-38 105-44 169h-31v-121c0-29-5-50-35-48C34-165 62-65 56 0H25l-1-190h30c1 10-1 24 2 32 10-44 99-50 107 0 11-21 27-35 58-36 85-2 47 119 55 194h-31v-121c0-29-5-49-35-48" id="ba"/><g id="q"><use transform="matrix(0.05,0,0,0.05,0,0)" xlink:href="#aR"/><use transform="matrix(0.05,0,0,0.05,5,0)" xlink:href="#aD"/><use transform="matrix(0.05,0,0,0.05,8.95,0)" xlink:href="#aS"/><use transform="matrix(0.05,0,0,0.05,12.899999999999999,0)" xlink:href="#aB"/><use transform="matrix(0.05,0,0,0.05,17.9,0)" xlink:href="#aF"/><use transform="matrix(0.05,0,0,0.05,27.899999999999995,0)" xlink:href="#aJ"/><use transform="matrix(0.05,0,0,0.05,33.85,0)" xlink:href="#aT"/><use transform="matrix(0.05,0,0,0.05,45.85,0)" xlink:href="#aU"/><use transform="matrix(0.05,0,0,0.05,54.85,0)" xlink:href="#aW"/><use transform="matrix(0.05,0,0,0.05,64.85,0)" xlink:href="#aD"/><use transform="matrix(0.05,0,0,0.05,68.8,0)" xlink:href="#aX"/><use transform="matrix(0.05,0,0,0.05,78.8,0)" xlink:href="#aH"/><use transform="matrix(0.05,0,0,0.05,88.8,0)" xlink:href="#aB"/><use transform="matrix(0.05,0,0,0.05,93.8,0)" xlink:href="#aY"/><use transform="matrix(0.05,0,0,0.05,106.75,0)" xlink:href="#aF"/><use transform="matrix(0.05,0,0,0.05,116.75,0)" xlink:href="#aZ"/><use transform="matrix(0.05,0,0,0.05,126.75,0)" xlink:href="#aO"/><use transform="matrix(0.05,0,0,0.05,136.75,0)" xlink:href="#aD"/><use transform="matrix(0.05,0,0,0.05,140.7,0)" xlink:href="#aJ"/><use transform="matrix(0.05,0,0,0.05,146.64999999999998,0)" xlink:href="#aF"/><use transform="matrix(0.05,0,0,0.05,156.64999999999998,0)" xlink:href="#ba"/><use transform="matrix(0.05,0,0,0.05,171.59999999999997,0)" xlink:href="#aF"/><use transform="matrix(0.05,0,0,0.05,181.59999999999997,0)" xlink:href="#aM"/><use transform="matrix(0.05,0,0,0.05,191.59999999999997,0)" xlink:href="#aB"/><use transform="matrix(0.05,0,0,0.05,196.59999999999997,0)" xlink:href="#aL"/></g><g id="r"><use transform="matrix(0.05,0,0,0.05,0,0)" xlink:href="#aS"/><use transform="matrix(0.05,0,0,0.05,3.95,0)" xlink:href="#aD"/><use transform="matrix(0.05,0,0,0.05,7.9,0)" xlink:href="#aX"/><use transform="matrix(0.05,0,0,0.05,17.9,0)" xlink:href="#aH"/><use transform="matrix(0.05,0,0,0.05,27.899999999999995,0)" xlink:href="#aB"/></g><path d="M206 0h-36l-40-164L89 0H53L-1-190h32L70-26l43-164h34l41 164 42-164h31" id="bb"/><g id="s"><use transform="matrix(0.05,0,0,0.05,0,0)" xlink:href="#bb"/><use transform="matrix(0.05,0,0,0.05,12.950000000000001,0)" xlink:href="#aI"/><use transform="matrix(0.05,0,0,0.05,22.950000000000003,0)" xlink:href="#aB"/><use transform="matrix(0.05,0,0,0.05,27.950000000000003,0)" xlink:href="#aF"/><use transform="matrix(0.05,0,0,0.05,37.95,0)" xlink:href="#aJ"/></g><g id="t"><use transform="matrix(0.05,0,0,0.05,0,0)" xlink:href="#aB"/><use transform="matrix(0.05,0,0,0.05,5,0)" xlink:href="#aD"/><use transform="matrix(0.05,0,0,0.05,8.95,0)" xlink:href="#az"/><use transform="matrix(0.05,0,0,0.05,18.95,0)" xlink:href="#aL"/></g><g id="u"><use transform="matrix(0.05,0,0,0.05,0,0)" xlink:href="#aB"/><use transform="matrix(0.05,0,0,0.05,5,0)" xlink:href="#aA"/><use transform="matrix(0.05,0,0,0.05,15,0)" xlink:href="#aN"/><use transform="matrix(0.05,0,0,0.05,24,0)" xlink:href="#aD"/><use transform="matrix(0.05,0,0,0.05,27.950000000000003,0)" xlink:href="#aG"/><use transform="matrix(0.05,0,0,0.05,36.95,0)" xlink:href="#aD"/><use transform="matrix(0.05,0,0,0.05,40.900000000000006,0)" xlink:href="#aB"/><use transform="matrix(0.05,0,0,0.05,45.900000000000006,0)" xlink:href="#aU"/></g><path d="M205 0l-28-72H64L36 0H1l101-248h38L239 0h-34zm-38-99l-47-123c-12 45-31 82-46 123h93" id="bc"/><g id="v"><use transform="matrix(0.05,0,0,0.05,0,0)" xlink:href="#aG"/><use transform="matrix(0.05,0,0,0.05,9,0)" xlink:href="#aJ"/><use transform="matrix(0.05,0,0,0.05,14.949999999999998,0)" xlink:href="#aF"/><use transform="matrix(0.05,0,0,0.05,24.95,0)" xlink:href="#aI"/><use transform="matrix(0.05,0,0,0.05,34.95,0)" xlink:href="#aB"/><use transform="matrix(0.05,0,0,0.05,39.95,0)" xlink:href="#aF"/><use transform="matrix(0.05,0,0,0.05,49.95,0)" xlink:href="#aK"/><use transform="matrix(0.05,0,0,0.05,59.95,0)" xlink:href="#bc"/><use transform="matrix(0.05,0,0,0.05,71.95,0)" xlink:href="#aB"/></g><g id="w"><use transform="matrix(0.05,0,0,0.05,0,0)" xlink:href="#aK"/><use transform="matrix(0.05,0,0,0.05,10,0)" xlink:href="#aI"/><use transform="matrix(0.05,0,0,0.05,20,0)" xlink:href="#aB"/><use transform="matrix(0.05,0,0,0.05,25,0)" xlink:href="#aF"/></g><path fill="#333" d="M20-101c0-91 52-143 145-150 126-9 127 168 53 223-23 17-55 32-93 32C57 4 20-33 20-101zm216-33c5-57-18-91-73-90-77 1-110 51-110 125 0 49 23 75 73 75 72-1 104-45 110-110" id="bd"/><path fill="#333" d="M66-151c12-25 30-51 66-40l-6 26C45-176 58-65 38 0H6l36-190h30" id="be"/><path fill="#333" d="M133-28C103 26-5 8 13-77c13-62 24-115 90-117 29-1 46 15 56 35l19-102h32L160 0h-30zM45-64c-2 27 10 43 35 43 54-1 69-50 69-103 0-29-15-46-42-46-53-1-58 58-62 106" id="bf"/><path fill="#333" d="M111-194c62-3 86 47 72 106H45c-7 38 6 69 45 68 27-1 43-14 53-32l24 11C152-15 129 4 87 4 38 3 12-23 12-71c0-70 32-119 99-123zm44 81c14-66-71-72-95-28-4 8-8 17-11 28h106" id="bg"/><path fill="#333" d="M14 0l48-248h34L48 0H14" id="bh"/><path fill="#333" d="M248-111c6-24 9-61-24-58-72 9-57 108-77 169h-31l26-142c3-37-50-30-64-10C52-115 50-51 37 0H6l36-190h30c-1 10-6 24-4 32 13-43 101-52 105 5 13-22 29-41 61-41 90 0 28 129 23 194h-31" id="bi"/><g id="x"><use transform="matrix(0.05,0,0,0.05,0,0)" xlink:href="#bd"/><use transform="matrix(0.05,0,0,0.05,14,0)" xlink:href="#be"/><use transform="matrix(0.05,0,0,0.05,19.95,0)" xlink:href="#bf"/><use transform="matrix(0.05,0,0,0.05,29.950000000000003,0)" xlink:href="#bg"/><use transform="matrix(0.05,0,0,0.05,39.95,0)" xlink:href="#be"/><use transform="matrix(0.05,0,0,0.05,45.900000000000006,0)" xlink:href="#bh"/><use transform="matrix(0.05,0,0,0.05,50.900000000000006,0)" xlink:href="#ai"/><use transform="matrix(0.05,0,0,0.05,55.900000000000006,0)" xlink:href="#bg"/><use transform="matrix(0.05,0,0,0.05,65.9,0)" xlink:href="#bi"/></g><g id="y"><use transform="matrix(0.05,0,0,0.05,0,0)" xlink:href="#ax"/><use transform="matrix(0.05,0,0,0.05,10,0)" xlink:href="#ay"/><use transform="matrix(0.05,0,0,0.05,13.949999999999998,0)" xlink:href="#as"/><use transform="matrix(0.05,0,0,0.05,23.95,0)" xlink:href="#al"/><use transform="matrix(0.05,0,0,0.05,33.95,0)" xlink:href="#am"/></g><g id="z"><use transform="matrix(0.05,0,0,0.05,0,0)" xlink:href="#aA"/><use transform="matrix(0.05,0,0,0.05,10,0)" xlink:href="#aJ"/><use transform="matrix(0.05,0,0,0.05,15.949999999999998,0)" xlink:href="#aK"/><use transform="matrix(0.05,0,0,0.05,25.950000000000003,0)" xlink:href="#aF"/><use transform="matrix(0.05,0,0,0.05,35.95,0)" xlink:href="#aJ"/></g><g id="A"><use transform="matrix(0.05,0,0,0.05,0,0)" xlink:href="#aM"/><use transform="matrix(0.05,0,0,0.05,10,0)" xlink:href="#aI"/><use transform="matrix(0.05,0,0,0.05,20,0)" xlink:href="#ba"/><use transform="matrix(0.05,0,0,0.05,34.95,0)" xlink:href="#aF"/></g><g id="B"><use transform="matrix(0.05,0,0,0.05,0,0)" xlink:href="#aZ"/><use transform="matrix(0.05,0,0,0.05,10,0)" xlink:href="#aB"/><use transform="matrix(0.05,0,0,0.05,15,0)" xlink:href="#aU"/></g><g id="C"><use transform="matrix(0.05,0,0,0.05,0,0)" xlink:href="#az"/><use transform="matrix(0.05,0,0,0.05,10,0)" xlink:href="#aJ"/><use transform="matrix(0.05,0,0,0.05,15.949999999999998,0)" xlink:href="#aD"/><use transform="matrix(0.05,0,0,0.05,19.9,0)" xlink:href="#aG"/><use transform="matrix(0.05,0,0,0.05,28.899999999999995,0)" xlink:href="#aF"/></g><g id="D"><use transform="matrix(0.05,0,0,0.05,0,0)" xlink:href="#aK"/><use transform="matrix(0.05,0,0,0.05,10,0)" xlink:href="#aF"/><use transform="matrix(0.05,0,0,0.05,20,0)" xlink:href="#aG"/><use transform="matrix(0.05,0,0,0.05,29,0)" xlink:href="#aD"/><use transform="matrix(0.05,0,0,0.05,32.95,0)" xlink:href="#ba"/><use transform="matrix(0.05,0,0,0.05,47.900000000000006,0)" xlink:href="#aI"/><use transform="matrix(0.05,0,0,0.05,57.900000000000006,0)" xlink:href="#aS"/></g><g id="E"><use transform="matrix(0.05,0,0,0.05,0,0)" xlink:href="#aD"/><use transform="matrix(0.05,0,0,0.05,3.95,0)" xlink:href="#ba"/><use transform="matrix(0.05,0,0,0.05,18.900000000000002,0)" xlink:href="#aI"/><use transform="matrix(0.05,0,0,0.05,28.900000000000002,0)" xlink:href="#aX"/><use transform="matrix(0.05,0,0,0.05,38.900000000000006,0)" xlink:href="#aF"/></g><path fill="#333" d="M62-99C39-31 123 0 170-40s38-139 58-208h34C234-144 253 4 115 4 49 4 18-43 31-112l26-136h34" id="bj"/><path fill="#333" d="M55-144c13 50 104 24 104 88C159 21 15 23 1-39l26-10c6 40 102 42 102-4-13-50-104-23-104-87 0-71 143-71 148-8l-29 4c-5-35-85-37-89 0" id="bk"/><g id="F"><use transform="matrix(0.05,0,0,0.05,0,0)" xlink:href="#bj"/><use transform="matrix(0.05,0,0,0.05,12.950000000000001,0)" xlink:href="#bk"/><use transform="matrix(0.05,0,0,0.05,21.950000000000003,0)" xlink:href="#bg"/><use transform="matrix(0.05,0,0,0.05,31.950000000000003,0)" xlink:href="#be"/></g><g id="G"><use transform="matrix(0.05,0,0,0.05,0,0)" xlink:href="#an"/><use transform="matrix(0.05,0,0,0.05,10,0)" xlink:href="#ao"/><use transform="matrix(0.05,0,0,0.05,19,0)" xlink:href="#ap"/><use transform="matrix(0.05,0,0,0.05,29,0)" xlink:href="#aq"/><use transform="matrix(0.05,0,0,0.05,34.95,0)" xlink:href="#al"/><use transform="matrix(0.05,0,0,0.05,44.95,0)" xlink:href="#as"/><use transform="matrix(0.05,0,0,0.05,54.95,0)" xlink:href="#at"/><use transform="matrix(0.05,0,0,0.05,69.9,0)" xlink:href="#ap"/></g><path fill="#333" d="M101-234c-31-9-42 10-38 44h38v23H63V0H32v-167H5v-23h27c-7-52 17-82 69-68v24" id="bl"/><path fill="#333" d="M-5 72V49h209v23H-5" id="bm"/><g id="H"><use transform="matrix(0.05,0,0,0.05,0,0)" xlink:href="#bl"/><use transform="matrix(0.05,0,0,0.05,5,0)" xlink:href="#aj"/><use transform="matrix(0.05,0,0,0.05,8.95,0)" xlink:href="#aq"/><use transform="matrix(0.05,0,0,0.05,14.899999999999999,0)" xlink:href="#ao"/><use transform="matrix(0.05,0,0,0.05,23.9,0)" xlink:href="#am"/><use transform="matrix(0.05,0,0,0.05,28.899999999999995,0)" xlink:href="#bm"/><use transform="matrix(0.05,0,0,0.05,38.9,0)" xlink:href="#al"/><use transform="matrix(0.05,0,0,0.05,48.9,0)" xlink:href="#as"/><use transform="matrix(0.05,0,0,0.05,58.900000000000006,0)" xlink:href="#at"/><use transform="matrix(0.05,0,0,0.05,73.85,0)" xlink:href="#ap"/></g><g id="I"><use transform="matrix(0.05,0,0,0.05,0,0)" xlink:href="#ay"/><use transform="matrix(0.05,0,0,0.05,3.95,0)" xlink:href="#as"/><use transform="matrix(0.05,0,0,0.05,13.949999999999998,0)" xlink:href="#ao"/><use transform="matrix(0.05,0,0,0.05,22.95,0)" xlink:href="#am"/><use transform="matrix(0.05,0,0,0.05,27.950000000000003,0)" xlink:href="#bm"/><use transform="matrix(0.05,0,0,0.05,37.95,0)" xlink:href="#al"/><use transform="matrix(0.05,0,0,0.05,47.95,0)" xlink:href="#as"/><use transform="matrix(0.05,0,0,0.05,57.95,0)" xlink:href="#at"/><use transform="matrix(0.05,0,0,0.05,72.9,0)" xlink:href="#ap"/></g><g id="J"><use transform="matrix(0.05,0,0,0.05,0,0)" xlink:href="#aF"/><use transform="matrix(0.05,0,0,0.05,10,0)" xlink:href="#ba"/><use transform="matrix(0.05,0,0,0.05,24.950000000000003,0)" xlink:href="#aI"/><use transform="matrix(0.05,0,0,0.05,34.95,0)" xlink:href="#aD"/><use transform="matrix(0.05,0,0,0.05,38.900000000000006,0)" xlink:href="#aS"/></g><g id="K"><use transform="matrix(0.05,0,0,0.05,0,0)" xlink:href="#az"/><use transform="matrix(0.05,0,0,0.05,10,0)" xlink:href="#aI"/><use transform="matrix(0.05,0,0,0.05,20,0)" xlink:href="#aL"/><use transform="matrix(0.05,0,0,0.05,29,0)" xlink:href="#aL"/><use transform="matrix(0.05,0,0,0.05,38,0)" xlink:href="#bb"/><use transform="matrix(0.05,0,0,0.05,50.95,0)" xlink:href="#aA"/><use transform="matrix(0.05,0,0,0.05,60.95,0)" xlink:href="#aJ"/><use transform="matrix(0.05,0,0,0.05,66.9,0)" xlink:href="#aK"/></g><path d="M-5 72V49h209v23H-5" id="bn"/><g id="L"><use transform="matrix(0.05,0,0,0.05,0,0)" xlink:href="#aD"/><use transform="matrix(0.05,0,0,0.05,3.95,0)" xlink:href="#aL"/><use transform="matrix(0.05,0,0,0.05,12.949999999999998,0)" xlink:href="#bn"/><use transform="matrix(0.05,0,0,0.05,22.95,0)" xlink:href="#aL"/><use transform="matrix(0.05,0,0,0.05,31.950000000000003,0)" xlink:href="#aB"/><use transform="matrix(0.05,0,0,0.05,36.95,0)" xlink:href="#aI"/><use transform="matrix(0.05,0,0,0.05,46.95,0)" xlink:href="#aR"/><use transform="matrix(0.05,0,0,0.05,51.6,0)" xlink:href="#aR"/></g><path d="M115-194c53 0 69 39 70 98 0 66-23 100-70 100C84 3 66-7 56-30L54 0H23l1-261h32v101c10-23 28-34 59-34zm-8 174c40 0 45-34 45-75 0-40-5-75-45-74-42 0-51 32-51 76 0 43 10 73 51 73" id="bo"/><g id="M"><use transform="matrix(0.05,0,0,0.05,0,0)" xlink:href="#bo"/><use transform="matrix(0.05,0,0,0.05,10,0)" xlink:href="#aA"/><use transform="matrix(0.05,0,0,0.05,20,0)" xlink:href="#aA"/><use transform="matrix(0.05,0,0,0.05,30,0)" xlink:href="#aS"/><use transform="matrix(0.05,0,0,0.05,33.95,0)" xlink:href="#aF"/><use transform="matrix(0.05,0,0,0.05,43.95,0)" xlink:href="#aI"/><use transform="matrix(0.05,0,0,0.05,53.95,0)" xlink:href="#aM"/></g><path d="M108 0H70L1-190h34L89-25l56-165h34" id="bp"/><g id="N"><use transform="matrix(0.05,0,0,0.05,0,0)" xlink:href="#aD"/><use transform="matrix(0.05,0,0,0.05,3.95,0)" xlink:href="#aL"/><use transform="matrix(0.05,0,0,0.05,12.949999999999998,0)" xlink:href="#bn"/><use transform="matrix(0.05,0,0,0.05,22.95,0)" xlink:href="#aI"/><use transform="matrix(0.05,0,0,0.05,32.95,0)" xlink:href="#aG"/><use transform="matrix(0.05,0,0,0.05,41.95,0)" xlink:href="#aB"/><use transform="matrix(0.05,0,0,0.05,46.95,0)" xlink:href="#aD"/><use transform="matrix(0.05,0,0,0.05,50.900000000000006,0)" xlink:href="#bp"/><use transform="matrix(0.05,0,0,0.05,59.900000000000006,0)" xlink:href="#aF"/></g><g id="O"><use transform="matrix(0.05,0,0,0.05,0,0)" xlink:href="#aD"/><use transform="matrix(0.05,0,0,0.05,3.95,0)" xlink:href="#aL"/><use transform="matrix(0.05,0,0,0.05,12.949999999999998,0)" xlink:href="#bn"/><use transform="matrix(0.05,0,0,0.05,22.95,0)" xlink:href="#aL"/><use transform="matrix(0.05,0,0,0.05,31.950000000000003,0)" xlink:href="#aO"/><use transform="matrix(0.05,0,0,0.05,41.95,0)" xlink:href="#az"/><use transform="matrix(0.05,0,0,0.05,51.95,0)" xlink:href="#aF"/><use transform="matrix(0.05,0,0,0.05,61.95,0)" xlink:href="#aJ"/><use transform="matrix(0.05,0,0,0.05,67.9,0)" xlink:href="#aO"/><use transform="matrix(0.05,0,0,0.05,77.9,0)" xlink:href="#aL"/><use transform="matrix(0.05,0,0,0.05,86.9,0)" xlink:href="#aF"/><use transform="matrix(0.05,0,0,0.05,96.9,0)" xlink:href="#aJ"/></g><g id="P"><use transform="matrix(0.05,0,0,0.05,0,0)" xlink:href="#bd"/><use transform="matrix(0.05,0,0,0.05,14,0)" xlink:href="#be"/><use transform="matrix(0.05,0,0,0.05,19.95,0)" xlink:href="#bf"/><use transform="matrix(0.05,0,0,0.05,29.950000000000003,0)" xlink:href="#bg"/><use transform="matrix(0.05,0,0,0.05,39.95,0)" xlink:href="#be"/></g><path d="M240 0l2-218c-23 76-54 145-80 218h-23L58-218 59 0H30v-248h44l77 211c21-75 51-140 76-211h43V0h-30" id="bq"/><g id="Q"><use transform="matrix(0.05,0,0,0.05,0,0)" xlink:href="#az"/><use transform="matrix(0.05,0,0,0.05,10,0)" xlink:href="#aI"/><use transform="matrix(0.05,0,0,0.05,20,0)" xlink:href="#aU"/><use transform="matrix(0.05,0,0,0.05,29,0)" xlink:href="#ba"/><use transform="matrix(0.05,0,0,0.05,43.95,0)" xlink:href="#aF"/><use transform="matrix(0.05,0,0,0.05,53.95,0)" xlink:href="#aM"/><use transform="matrix(0.05,0,0,0.05,63.95,0)" xlink:href="#aB"/><use transform="matrix(0.05,0,0,0.05,68.95,0)" xlink:href="#bq"/><use transform="matrix(0.05,0,0,0.05,83.9,0)" xlink:href="#aF"/><use transform="matrix(0.05,0,0,0.05,93.9,0)" xlink:href="#aB"/><use transform="matrix(0.05,0,0,0.05,98.9,0)" xlink:href="#aH"/><use transform="matrix(0.05,0,0,0.05,108.9,0)" xlink:href="#aA"/><use transform="matrix(0.05,0,0,0.05,118.9,0)" xlink:href="#aK"/></g><g id="R"><use transform="matrix(0.05,0,0,0.05,0,0)" xlink:href="#aB"/><use transform="matrix(0.05,0,0,0.05,5,0)" xlink:href="#aI"/><use transform="matrix(0.05,0,0,0.05,15,0)" xlink:href="#aN"/><use transform="matrix(0.05,0,0,0.05,24,0)" xlink:href="#aV"/><use transform="matrix(0.05,0,0,0.05,36,0)" xlink:href="#aJ"/><use transform="matrix(0.05,0,0,0.05,41.95,0)" xlink:href="#aD"/><use transform="matrix(0.05,0,0,0.05,45.900000000000006,0)" xlink:href="#aG"/><use transform="matrix(0.05,0,0,0.05,54.900000000000006,0)" xlink:href="#aF"/></g><g id="S"><use transform="matrix(0.05,0,0,0.05,0,0)" xlink:href="#aL"/><use transform="matrix(0.05,0,0,0.05,9,0)" xlink:href="#aH"/><use transform="matrix(0.05,0,0,0.05,19,0)" xlink:href="#aD"/><use transform="matrix(0.05,0,0,0.05,22.95,0)" xlink:href="#az"/><use transform="matrix(0.05,0,0,0.05,32.95,0)" xlink:href="#az"/><use transform="matrix(0.05,0,0,0.05,42.95,0)" xlink:href="#aD"/><use transform="matrix(0.05,0,0,0.05,46.900000000000006,0)" xlink:href="#aM"/><use transform="matrix(0.05,0,0,0.05,56.900000000000006,0)" xlink:href="#aX"/><use transform="matrix(0.05,0,0,0.05,66.9,0)" xlink:href="#aV"/><use transform="matrix(0.05,0,0,0.05,78.9,0)" xlink:href="#aJ"/><use transform="matrix(0.05,0,0,0.05,84.85000000000001,0)" xlink:href="#aD"/><use transform="matrix(0.05,0,0,0.05,88.80000000000001,0)" xlink:href="#aG"/><use transform="matrix(0.05,0,0,0.05,97.80000000000001,0)" xlink:href="#aF"/></g><g id="T"><use transform="matrix(0.05,0,0,0.05,0,0)" xlink:href="#aB"/><use transform="matrix(0.05,0,0,0.05,5,0)" xlink:href="#aA"/><use transform="matrix(0.05,0,0,0.05,15,0)" xlink:href="#aB"/><use transform="matrix(0.05,0,0,0.05,20,0)" xlink:href="#aI"/><use transform="matrix(0.05,0,0,0.05,30,0)" xlink:href="#aS"/><use transform="matrix(0.05,0,0,0.05,33.95,0)" xlink:href="#aV"/><use transform="matrix(0.05,0,0,0.05,45.95,0)" xlink:href="#aJ"/><use transform="matrix(0.05,0,0,0.05,51.900000000000006,0)" xlink:href="#aD"/><use transform="matrix(0.05,0,0,0.05,55.85,0)" xlink:href="#aG"/><use transform="matrix(0.05,0,0,0.05,64.85000000000001,0)" xlink:href="#aF"/></g><g id="U"><use transform="matrix(0.05,0,0,0.05,0,0)" xlink:href="#aD"/><use transform="matrix(0.05,0,0,0.05,3.95,0)" xlink:href="#aL"/><use transform="matrix(0.05,0,0,0.05,12.949999999999998,0)" xlink:href="#aV"/><use transform="matrix(0.05,0,0,0.05,24.95,0)" xlink:href="#aI"/><use transform="matrix(0.05,0,0,0.05,34.95,0)" xlink:href="#aD"/><use transform="matrix(0.05,0,0,0.05,38.900000000000006,0)" xlink:href="#aK"/></g><g id="V"><use transform="matrix(0.05,0,0,0.05,0,0)" xlink:href="#az"/><use transform="matrix(0.05,0,0,0.05,10,0)" xlink:href="#aI"/><use transform="matrix(0.05,0,0,0.05,20,0)" xlink:href="#aD"/><use transform="matrix(0.05,0,0,0.05,23.95,0)" xlink:href="#aK"/><use transform="matrix(0.05,0,0,0.05,33.95,0)" xlink:href="#bc"/><use transform="matrix(0.05,0,0,0.05,45.95,0)" xlink:href="#aB"/></g><path d="M30-248c118-7 216 8 213 122C240-48 200 0 122 0H30v-248zM63-27c89 8 146-16 146-99s-60-101-146-95v194" id="br"/><g id="W"><use transform="matrix(0.05,0,0,0.05,0,0)" xlink:href="#aD"/><use transform="matrix(0.05,0,0,0.05,3.95,0)" xlink:href="#aL"/><use transform="matrix(0.05,0,0,0.05,12.949999999999998,0)" xlink:href="#br"/><use transform="matrix(0.05,0,0,0.05,25.899999999999995,0)" xlink:href="#aF"/><use transform="matrix(0.05,0,0,0.05,35.9,0)" xlink:href="#aS"/><use transform="matrix(0.05,0,0,0.05,39.85,0)" xlink:href="#aD"/><use transform="matrix(0.05,0,0,0.05,43.800000000000004,0)" xlink:href="#bp"/><use transform="matrix(0.05,0,0,0.05,52.800000000000004,0)" xlink:href="#aF"/><use transform="matrix(0.05,0,0,0.05,62.800000000000004,0)" xlink:href="#aJ"/><use transform="matrix(0.05,0,0,0.05,68.75,0)" xlink:href="#aF"/><use transform="matrix(0.05,0,0,0.05,78.75,0)" xlink:href="#aK"/></g><g id="X"><use transform="matrix(0.05,0,0,0.05,0,0)" xlink:href="#aK"/><use transform="matrix(0.05,0,0,0.05,10,0)" xlink:href="#aF"/><use transform="matrix(0.05,0,0,0.05,20,0)" xlink:href="#aS"/><use transform="matrix(0.05,0,0,0.05,23.95,0)" xlink:href="#aD"/><use transform="matrix(0.05,0,0,0.05,27.899999999999995,0)" xlink:href="#bp"/><use transform="matrix(0.05,0,0,0.05,36.9,0)" xlink:href="#aF"/><use transform="matrix(0.05,0,0,0.05,46.9,0)" xlink:href="#aJ"/><use transform="matrix(0.05,0,0,0.05,52.85,0)" xlink:href="#aF"/><use transform="matrix(0.05,0,0,0.05,62.85,0)" xlink:href="#aK"/><use transform="matrix(0.05,0,0,0.05,72.85,0)" xlink:href="#bc"/><use transform="matrix(0.05,0,0,0.05,84.85,0)" xlink:href="#aB"/></g><path fill="#333" d="M194-120c59 52 2 134-86 124-53-6-90-18-98-63l31-7c8 30 29 43 70 43 46 0 84-17 71-62-32-43-135-20-137-98-3-89 178-90 191-16l-30 9c-8-48-127-53-127 5 0 53 81 35 115 65" id="bs"/><path fill="#333" d="M67-158c15-20 31-36 64-36 94 0 33 127 27 194h-32l25-140c3-38-53-32-70-12C52-117 51-51 37 0H6l51-261h31" id="bt"/><path fill="#333" d="M50-231l6-30h32l-6 30H50zM6 0l37-190h31L37 0H6" id="bu"/><path fill="#333" d="M67-162c32-53 139-36 121 50C175-51 163 2 97 4 68 4 52-11 42-31 38 6 28 39 22 75H-9l50-265h29c-1 10 0 20-3 28zm89 36c0-26-10-43-35-43-54 0-67 50-69 103-1 29 14 45 42 46 53 0 62-58 62-106" id="bv"/><path fill="#333" d="M103-194c29 0 47 14 56 36 2-11 5-23 8-32h30L160-5C157 61 82 97 21 62 9 55 4 45 1 30l28-7c7 42 83 31 92-3 4-16 9-38 13-55-13 20-29 36-62 36-40 0-60-25-60-64 0-71 23-131 91-131zm4 24c-53 0-58 54-61 104-2 27 10 44 36 44 49 0 65-50 67-102 1-29-15-46-42-46" id="bw"/><path fill="#333" d="M187 0l-14-72H61L19 0h-37l149-248h38L221 0h-34zm-19-99l-22-123L76-99h92" id="bx"/><g id="Y"><use transform="matrix(0.05,0,0,0.05,0,0)" xlink:href="#bs"/><use transform="matrix(0.05,0,0,0.05,12,0)" xlink:href="#bt"/><use transform="matrix(0.05,0,0,0.05,22,0)" xlink:href="#bu"/><use transform="matrix(0.05,0,0,0.05,25.950000000000003,0)" xlink:href="#bv"/><use transform="matrix(0.05,0,0,0.05,35.95,0)" xlink:href="#bv"/><use transform="matrix(0.05,0,0,0.05,45.95,0)" xlink:href="#bu"/><use transform="matrix(0.05,0,0,0.05,49.900000000000006,0)" xlink:href="#ah"/><use transform="matrix(0.05,0,0,0.05,59.900000000000006,0)" xlink:href="#bw"/><use transform="matrix(0.05,0,0,0.05,69.9,0)" xlink:href="#bx"/><use transform="matrix(0.05,0,0,0.05,81.9,0)" xlink:href="#bf"/><use transform="matrix(0.05,0,0,0.05,91.9,0)" xlink:href="#bf"/><use transform="matrix(0.05,0,0,0.05,101.9,0)" xlink:href="#be"/><use transform="matrix(0.05,0,0,0.05,107.85000000000001,0)" xlink:href="#bg"/><use transform="matrix(0.05,0,0,0.05,117.85000000000001,0)" xlink:href="#bk"/><use transform="matrix(0.05,0,0,0.05,126.85000000000001,0)" xlink:href="#bk"/></g><path fill="#333" d="M100-194c62-1 85 37 85 99 1 63-27 99-86 99S16-35 15-95c0-66 28-99 85-99zM99-20c44 1 53-31 53-75 0-43-8-75-51-75s-53 32-53 75 10 74 51 75" id="by"/><g id="Z"><use transform="matrix(0.05,0,0,0.05,0,0)" xlink:href="#by"/><use transform="matrix(0.05,0,0,0.05,10,0)" xlink:href="#aq"/><use transform="matrix(0.05,0,0,0.05,15.949999999999998,0)" xlink:href="#ak"/><use transform="matrix(0.05,0,0,0.05,25.950000000000003,0)" xlink:href="#ap"/><use transform="matrix(0.05,0,0,0.05,35.95,0)" xlink:href="#aq"/></g><g id="aa"><use transform="matrix(0.05,0,0,0.05,0,0)" xlink:href="#aI"/><use transform="matrix(0.05,0,0,0.05,10,0)" xlink:href="#aK"/><use transform="matrix(0.05,0,0,0.05,20,0)" xlink:href="#aK"/><use transform="matrix(0.05,0,0,0.05,30,0)" xlink:href="#aJ"/><use transform="matrix(0.05,0,0,0.05,35.95,0)" xlink:href="#aF"/><use transform="matrix(0.05,0,0,0.05,45.95,0)" xlink:href="#aL"/><use transform="matrix(0.05,0,0,0.05,54.95,0)" xlink:href="#aL"/></g><g id="ab"><use transform="matrix(0.05,0,0,0.05,0,0)" xlink:href="#aG"/><use transform="matrix(0.05,0,0,0.05,9,0)" xlink:href="#aD"/><use transform="matrix(0.05,0,0,0.05,12.949999999999998,0)" xlink:href="#aB"/><use transform="matrix(0.05,0,0,0.05,17.95,0)" xlink:href="#aU"/></g><path d="M212-179c-10-28-35-45-73-45-59 0-87 40-87 99 0 60 29 101 89 101 43 0 62-24 78-52l27 14C228-24 195 4 139 4 59 4 22-46 18-125c-6-104 99-153 187-111 19 9 31 26 39 46" id="bz"/><g id="ac"><use transform="matrix(0.05,0,0,0.05,0,0)" xlink:href="#az"/><use transform="matrix(0.05,0,0,0.05,10,0)" xlink:href="#aA"/><use transform="matrix(0.05,0,0,0.05,20,0)" xlink:href="#aL"/><use transform="matrix(0.05,0,0,0.05,29,0)" xlink:href="#aB"/><use transform="matrix(0.05,0,0,0.05,34,0)" xlink:href="#aI"/><use transform="matrix(0.05,0,0,0.05,44,0)" xlink:href="#aS"/><use transform="matrix(0.05,0,0,0.05,47.95,0)" xlink:href="#bz"/><use transform="matrix(0.05,0,0,0.05,60.900000000000006,0)" xlink:href="#aA"/><use transform="matrix(0.05,0,0,0.05,70.9,0)" xlink:href="#aK"/><use transform="matrix(0.05,0,0,0.05,80.9,0)" xlink:href="#aF"/></g><g id="ad"><use transform="matrix(0.05,0,0,0.05,0,0)" xlink:href="#aG"/><use transform="matrix(0.05,0,0,0.05,9,0)" xlink:href="#aA"/><use transform="matrix(0.05,0,0,0.05,19,0)" xlink:href="#aO"/><use transform="matrix(0.05,0,0,0.05,29,0)" xlink:href="#aM"/><use transform="matrix(0.05,0,0,0.05,39,0)" xlink:href="#aB"/><use transform="matrix(0.05,0,0,0.05,44,0)" xlink:href="#aJ"/><use transform="matrix(0.05,0,0,0.05,49.95,0)" xlink:href="#aU"/></g></defs></g></svg>